# xmcd CD database file
# Copyright (C) 1997 Ti Kan
# 
# Track frame offsets:
#     150
#     16392
#     30787
#     44895
#     55880
#     67145
#     79607
#     100270
#     112272
#     120742
#     134890
#     152322
#     168687
#     183887
#     199050
#     210777
#     223732
#     234210
#     245495
#     254282
# 
# Disc length: 3601 seconds
# 
# Revision: 1
# Processed by: cddbd v1.4b41PL1 Copyright (c) Steve Scherf et al.
# Submitted via: DiscPlay 4.0.4
# 
DISCID=1b0e0f14
DTITLE=BILLIE JO SPEARS - 20 COUNTRY GREATS
DYEAR=1900
DGENRE=
TTITLE0=QUEEN OF THE SILVER DOLLARS
TTITLE1=CRYIN' TIME
TTITLE2=I'LL NEVER LOVE LIKE THIS AGAIN
TTITLE3=ALL I HAVE TO DO IS DREAM
TTITLE4=TENNESSEE WALTZ
TTITLE5=WHAT I'VE GOT IN MIND
TTITLE6=JUST THE WAY YOU ARE
TTITLE7=THIS OLE HOUSE
TTITLE8=ROCKY TOP
TTITLE9=BLUE BAYOU
TTITLE10=FOR THE GOOD TIMES
TTITLE11=FIRE AND RAIN
TTITLE12=CRYSTAL CHANDELIERS
TTITLE13=IT'S A HEARTACHE
TTITLE14=SILVER THREADS AND GOLDEN NEEDLES
TTITLE15='57 CHEVROLET
TTITLE16=I'M GONNA BE A COUNTRY GIRL AGAIN
TTITLE17=HERE YOU COME AGAIN
TTITLE18=BLUE BLUE DAY
TTITLE19=BLANKET ON THE GROUND
EXTD=
EXTT0=
EXTT1=
EXTT2=
EXTT3=
EXTT4=
EXTT5=
EXTT6=
EXTT7=
EXTT8=
EXTT9=
EXTT10=
EXTT11=
EXTT12=
EXTT13=
EXTT14=
EXTT15=
EXTT16=
EXTT17=
EXTT18=
EXTT19=
PLAYORDER=
